<svg width="30" height="23" viewBox="0 0 30 23" fill="none" xmlns="http://www.w3.org/2000/svg">
<path fill-rule="evenodd" clip-rule="evenodd" d="M0.0195826 3.92853C0.175848 3.93146 0.333728 3.97117 0.480315 4.05145L15 12.0027L29.5197 4.05145C29.6663 3.97117 29.8242 3.93146 29.9804 3.92853C29.9304 2.41803 29.7527 1.51009 29.1213 0.87868C28.2426 0 26.8284 0 24 0H6C3.17157 0 1.75736 0 0.87868 0.87868C0.247273 1.51009 0.0695862 2.41802 0.0195826 3.92853ZM30 6.06867L15.9606 13.7569C15.3621 14.0846 14.6379 14.0846 14.0394 13.7569L0 6.06867V17C0 19.8284 0 21.2426 0.87868 22.1213C1.75736 23 3.17157 23 6 23H24C26.8284 23 28.2426 23 29.1213 22.1213C30 21.2426 30 19.8284 30 17V6.06867Z" fill="white"/>
</svg>
