<svg width="22" height="25" viewBox="0 0 22 25" fill="none" xmlns="http://www.w3.org/2000/svg">
<path fill-rule="evenodd" clip-rule="evenodd" d="M10.9528 24.4422C12.8892 23.445 21.0937 18.7497 21.0937 10.7812C21.0937 4.82692 16.3717 0 10.5469 0C4.72199 0 0 4.82692 0 10.7812C0 18.7497 8.20451 23.445 10.1409 24.4422C10.3993 24.5752 10.6944 24.5752 10.9528 24.4422ZM10.5469 15.4018C13.0432 15.4018 15.0669 13.3331 15.0669 10.7813C15.0669 8.22941 13.0432 6.16073 10.5469 6.16073C8.05048 6.16073 6.02677 8.22941 6.02677 10.7813C6.02677 13.3331 8.05048 15.4018 10.5469 15.4018Z" fill="white"/>
</svg>
