<svg width="32" height="20" viewBox="0 0 32 20" fill="none" xmlns="http://www.w3.org/2000/svg">
<path d="M15.5821 1.76301e-06C12.1168 1.76301e-06 8.65412 1.01752 5.65996 3.05386H0L2.5477 5.82479C1.3869 6.88239 0.573156 8.26637 0.213368 9.79493C-0.14642 11.3235 -0.0354244 12.9251 0.531773 14.3895C1.09897 15.8538 2.09584 17.1123 3.39142 17.9997C4.68701 18.887 6.22071 19.3617 7.79104 19.3615C9.75317 19.3632 11.643 18.6211 13.0798 17.2849L15.5743 20L18.0688 17.2875C19.5047 18.6223 21.3931 19.3634 23.3537 19.3615C25.4185 19.3615 27.3988 18.5414 28.8591 17.0816C30.3194 15.6218 31.1401 13.6417 31.1408 11.5769C31.142 10.494 30.9167 9.42283 30.4792 8.4322C30.0418 7.44158 29.402 6.55342 28.6009 5.82479L31.1486 3.05386H25.5029C22.5778 1.06258 19.1207 -0.001581 15.5821 1.76301e-06ZM15.5743 2.5438C17.5613 2.5438 19.5496 2.93706 21.4199 3.71577C18.096 4.98767 15.5743 7.96236 15.5743 11.4276C15.5743 7.96107 13.0539 4.98767 9.72875 3.71577C11.581 2.94379 13.5676 2.54463 15.5743 2.5438ZM7.78975 6.31019C8.48155 6.31019 9.16658 6.44645 9.80573 6.71119C10.4449 6.97593 11.0256 7.36397 11.5148 7.85315C12.004 8.34233 12.392 8.92307 12.6568 9.56222C12.9215 10.2014 13.0578 10.8864 13.0578 11.5782C13.0578 12.27 12.9215 12.955 12.6568 13.5942C12.392 14.2333 12.004 14.8141 11.5148 15.3032C11.0256 15.7924 10.4449 16.1805 9.80573 16.4452C9.16658 16.7099 8.48155 16.8462 7.78975 16.8462C6.39258 16.8462 5.05265 16.2912 4.0647 15.3032C3.07676 14.3153 2.52174 12.9754 2.52174 11.5782C2.52174 10.181 3.07676 8.8411 4.0647 7.85315C5.05265 6.86521 6.39258 6.31019 7.78975 6.31019ZM23.3537 6.31279C24.0452 6.31253 24.73 6.44849 25.369 6.7129C26.0081 6.9773 26.5887 7.36498 27.0779 7.8538C27.5671 8.34262 27.9552 8.923 28.2201 9.56181C28.4849 10.2006 28.6214 10.8854 28.6217 11.5769C28.6219 12.2684 28.486 12.9533 28.2216 13.5923C27.9572 14.2313 27.5695 14.812 27.0807 15.3011C26.5918 15.7903 26.0115 16.1784 25.3726 16.4433C24.7338 16.7082 24.0491 16.8447 23.3576 16.8449C21.9609 16.8454 20.6213 16.2911 19.6333 15.3039C18.6454 14.3167 18.0901 12.9774 18.0896 11.5808C18.089 10.1841 18.6434 8.8445 19.6306 7.85655C20.6178 6.86861 21.957 6.3133 23.3537 6.31279ZM7.78975 8.81765C7.05726 8.81765 6.35477 9.10863 5.83683 9.62658C5.31888 10.1445 5.0279 10.847 5.0279 11.5795C5.0279 12.312 5.31888 13.0145 5.83683 13.5324C6.35477 14.0504 7.05726 14.3413 7.78975 14.3413C8.52223 14.3413 9.22472 14.0504 9.74266 13.5324C10.2606 13.0145 10.5516 12.312 10.5516 11.5795C10.5516 10.847 10.2606 10.1445 9.74266 9.62658C9.22472 9.10863 8.52223 8.81765 7.78975 8.81765ZM23.3537 8.81765C22.6212 8.81765 21.9187 9.10863 21.4007 9.62658C20.8828 10.1445 20.5918 10.847 20.5918 11.5795C20.5918 12.312 20.8828 13.0145 21.4007 13.5324C21.9187 14.0504 22.6212 14.3413 23.3537 14.3413C24.0861 14.3413 24.7886 14.0504 25.3066 13.5324C25.8245 13.0145 26.1155 12.312 26.1155 11.5795C26.1155 10.847 25.8245 10.1445 25.3066 9.62658C24.7886 9.10863 24.0861 8.81765 23.3537 8.81765Z" fill="white"/>
</svg>
